<svg class="icon-standard" width="28px" height="8px" viewBox="0 0 28 8" version="1.1" xmlns="http://www.w3.org/2000/svg" xmlns:xlink="http://www.w3.org/1999/xlink">
    <g id="Page-1" stroke="none" stroke-width="1" fill="none" fill-rule="evenodd">
        <g id="dots" sketch:type="MSLayerGroup" transform="translate(0.000000, 1.000000)" fill="#293b42">
            <g id="Page-1" sketch:type="MSShapeGroup">
                <g id="dots">
                    <g id="Page-1">
                        <path d="M4,6.939759 C6.20913911,6.939759 8,5.16238348 8,2.96987948 C8,0.777375484 6.20913911,-1.00000004 4,-1.00000004 C1.79086089,-1.00000004 0,0.777375484 0,2.96987948 C0,5.16238348 1.79086089,6.939759 4,6.939759 L4,6.939759 L4,6.939759 Z M24,7 C26.2091391,7 28,5.22262448 28,3.03012048 C28,0.83761637 26.2091391,-0.93975904 24,-0.93975904 C21.7908609,-0.93975904 20,0.83761637 20,3.03012048 C20,5.22262448 21.7908609,7 24,7 L24,7 L24,7 Z M14,6.93975904 C16.2091391,6.93975904 18,5.16238354 18,2.96987952 C18,0.777375491 16.2091391,-1 14,-1 C11.7908609,-1 10,0.777375491 10,2.96987952 C10,5.16238354 11.7908609,6.93975904 14,6.93975904 L14,6.93975904 L14,6.93975904 Z" id="Shape"></path>
                    </g>
                </g>
            </g>
        </g>
    </g>
</svg>
