<?xml version="1.0" encoding="UTF-8" standalone="no"?>
<svg width="32px" height="32px" viewBox="0 0 2 2" version="1.1" xmlns="http://www.w3.org/2000/svg" xmlns:xlink="http://www.w3.org/1999/xlink">
    <g id="Page-1" stroke="none" stroke-width="1" fill="none" fill-rule="evenodd" sketch:type="MSPage">
        <path d="M1.85714286,1.39285683 L1.85714286,0.535713388 C1.83333332,0.562475311 1.80766663,0.587022947 1.7801428,0.609356295 C1.5807141,0.762642114 1.4222378,0.888380294 1.30471391,0.986570837 C1.2667615,1.01857086 1.23588053,1.04349945 1.21207099,1.0613566 C1.18826145,1.07921376 1.15607095,1.09726139 1.1154995,1.1154995 C1.07492804,1.1337376 1.03678516,1.14285666 1.00107085,1.14285666 L0.99885656,1.14285666 C0.96314225,1.14285666 0.924999367,1.1337376 0.884427911,1.1154995 C0.843856454,1.09726139 0.811665956,1.07921376 0.787856416,1.0613566 C0.764046876,1.04349945 0.733165903,1.01857086 0.695213496,0.986570837 C0.577641988,0.888332675 0.41916569,0.762594495 0.219784602,0.609356295 C0.192260774,0.587022947 0.16659409,0.562475311 0.14278455,0.535713388 L0.14278455,1.39285683 C0.14278455,1.4025235 0.146308362,1.41090446 0.153355985,1.4179997 C0.160403609,1.42509494 0.168784567,1.42861876 0.17849886,1.42857114 L1.82135712,1.42857114 C1.83102379,1.42857114 1.83940475,1.42504733 1.84649999,1.4179997 C1.85359524,1.41095208 1.85711905,1.40257112 1.85707143,1.39285683 L1.85714286,1.39285683 Z M1.85714286,0.219856031 L1.85714286,0.192498869 L1.85657143,0.177998859 C1.85619048,0.168332186 1.85507143,0.163689326 1.85321428,0.164070278 C1.85135714,0.164451231 1.84930952,0.161094086 1.84707142,0.153998843 C1.84483332,0.1469036 1.84147618,0.144117884 1.83699999,0.145641694 C1.83252379,0.147165505 1.8273095,0.146236933 1.82135712,0.142855978 L0.17849886,0.142855978 C0.168832186,0.142855978 0.160451228,0.14637979 0.153355985,0.153427414 C0.146260742,0.160475038 0.142736931,0.168855996 0.14278455,0.178570288 C0.14278455,0.303570373 0.197475063,0.409237112 0.30685609,0.495570504 C0.450475235,0.608665819 0.599665812,0.72659447 0.754427822,0.849356458 C0.758904016,0.853070746 0.771927834,0.864046944 0.793499277,0.882285052 C0.815070721,0.90052316 0.83218978,0.91447555 0.844856455,0.924142223 C0.85752313,0.933808897 0.874070761,0.94552319 0.894499346,0.959285104 C0.914927931,0.973047018 0.933713658,0.983285121 0.950856527,0.989999411 C0.967999396,0.996713701 0.983999407,1.00007085 0.99885656,1.00007085 L1.00107085,1.00007085 C1.01597562,1.00007085 1.03197563,0.996713701 1.04907088,0.989999411 C1.06616613,0.983285121 1.08495186,0.973047018 1.10542806,0.959285104 C1.12590427,0.94552319 1.1424519,0.933808897 1.15507095,0.924142223 C1.16769001,0.91447555 1.18480907,0.90052316 1.20642813,0.882285052 C1.22804719,0.864046944 1.24107101,0.853070746 1.24549958,0.849356458 C1.40026159,0.72659447 1.54945217,0.608665819 1.69307132,0.495570504 C1.73326182,0.463570482 1.7706428,0.420594262 1.80521425,0.366641845 C1.8397857,0.312689427 1.85709524,0.263760822 1.85714286,0.219856031 L1.85714286,0.219856031 Z M2.0000001,0.178570288 L2.0000001,1.39285683 C2.0000001,1.4419521 1.98252389,1.48399975 1.94757149,1.51899977 C1.91261909,1.55399979 1.87057144,1.571476 1.82142855,1.57142838 L0.178570288,1.57142838 C0.129475017,1.57142838 0.0874273692,1.55395217 0.0524273454,1.51899977 C0.0174273216,1.48404737 -4.88807259e-05,1.44199972 -1.2616459e-06,1.39285683 L-1.2616459e-06,0.178570288 C-1.2616459e-06,0.129475017 0.0174749407,0.0874273692 0.0524273454,0.0524273454 C0.0873797501,0.0174273216 0.129427398,-4.88807259e-05 0.178570288,-1.2616459e-06 L1.82142855,-1.2616459e-06 C1.87052382,-1.2616459e-06 1.91257147,0.0174749407 1.94757149,0.0524273454 C1.98257151,0.0873797501 2.00004772,0.129427398 2.0000001,0.178570288 L2.0000001,0.178570288 Z" id="Shape" fill="#FFFFFF" sketch:type="MSShapeGroup"></path>
    </g>
</svg>
