<svg fill="#ffffff" class="icon-standard aside-left" width="21px" height="21px" viewBox="0 0 21 21" version="1.1" xmlns="http://www.w3.org/2000/svg" xmlns:xlink="http://www.w3.org/1999/xlink">
    <g id="Page-1" stroke="none" stroke-width="1" fill="none" fill-rule="evenodd" sketch:type="MSPage">
        <path d="M18.676305,10.5994048 C18.676305,9.35186001 19.4441164,8.3673948 20.5988096,7.69124457 C20.3892983,6.99604785 20.115505,6.32823046 19.7762395,5.70088685 C18.4786977,6.04015237 17.4299506,5.53184929 16.5490507,4.65094935 C15.6657699,3.768859 15.3955479,2.71892149 15.7348134,1.42376049 C15.1074698,1.08449497 14.4420332,0.807130528 13.7444557,0.6 C13.0683055,1.75588358 11.8457592,2.52369502 10.5994048,2.52369502 C9.35305041,2.52369502 8.13169454,1.75588358 7.45435391,0.6 C6.75677638,0.807130528 6.0913398,1.08449497 5.46399619,1.42257009 C5.80207131,2.71892149 5.5330397,3.768859 4.65094935,4.65094935 C3.768859,5.5330397 2.71892149,6.04015237 1.42376049,5.70207726 C1.08449497,6.32823046 0.808320933,6.99604785 0.6,7.69124457 C1.75588358,8.3673948 2.52369502,9.35186001 2.52369502,10.5994048 C2.52369502,11.8457592 1.75588358,13.0683055 0.6,13.7456461 C0.808320933,14.4420332 1.08449497,15.1086602 1.42376049,15.7360038 C2.7201119,15.3967383 3.768859,15.6669603 4.65094935,16.5490507 C5.5330397,17.431141 5.80207131,18.4798881 5.46399619,19.7762395 C6.0913398,20.115505 6.75796679,20.3928695 7.45435391,20.6 C8.13169454,19.442926 9.35305041,18.676305 10.5994048,18.676305 C11.8457592,18.676305 13.0694959,19.4441164 13.7456461,20.6 C14.4432236,20.3916791 15.1086602,20.115505 15.7360038,19.7762395 C15.3967383,18.4798881 15.6657699,17.431141 16.5502411,16.5490507 C17.431141,15.6681507 18.4798881,15.1598476 19.7774299,15.4979227 C20.1166954,14.8705791 20.3916791,14.2039521 20.6,13.507565 C19.4441164,12.8302244 18.676305,11.8457592 18.676305,10.5994048 L18.676305,10.5994048 Z M10.4974319,14.647 C8.20570021,14.647 6.348,12.788418 6.348,10.497 C6.348,8.20558199 8.20570021,6.347 10.4974319,6.347 C12.7902998,6.347 14.648,8.20558199 14.648,10.497 C14.648,12.788418 12.7902998,14.647 10.4974319,14.647 L10.4974319,14.647 Z" id="Shape" fill="#FFFFFF" sketch:type="MSShapeGroup"></path>
    </g>
</svg>
