<svg class="icon-standard aside-left" data-ng-hide="board.trashIsEmpty()" width="23px" height="28px" viewBox="0 0 23 28" version="1.1" xmlns="http://www.w3.org/2000/svg" xmlns:xlink="http://www.w3.org/1999/xlink">
    <g stroke="none" stroke-width="1" fill="none" fill-rule="evenodd" sketch:type="MSPage">
        <g id="Group" sketch:type="MSLayerGroup" transform="translate(1.000000, 1.000000)" fill="#FFFFFF">
            <path d="M3,24 C3,25.656 4.343,27 6,27 L16,27 C17.656,27 19,25.656 19,24 L21,8 L1,8 L3,24 L3,24 Z M14,11 L16,11 L16,24 L14,24 L14,11 L14,11 Z M10,11 L12,11 L12,24 L10,24 L10,11 L10,11 Z M6,11 L8,11 L8,24 L6,24 L6,11 L6,11 Z M19.0968485,-0.283405871 L12.7899262,1.28908645 C12.7899262,1.28908645 11.87139,-0.543123993 11.3357867,-0.409583107 L7.45460381,0.55810448 C6.91803027,0.69188728 6.96815187,2.74061782 6.96815187,2.74061782 L0.66122965,4.31311015 C-0.143145505,4.5136634 -0.631884345,5.32706142 -0.431331093,6.13143658 L-0.06844825,7.58688017 L21.2780577,2.26459846 L20.9151749,0.80915487 C20.7146216,0.00477972 19.9002533,-0.483717201 19.0968485,-0.283405871 L19.0968485,-0.283405871 L19.0968485,-0.283405871 Z" id="Shape" sketch:type="MSShapeGroup"></path>
        </g>
    </g>
</svg>
