<?xml version="1.0" encoding="UTF-8" standalone="no"?>
<svg width="28px" height="24px" viewBox="0 0 28 24" version="1.1" xmlns="http://www.w3.org/2000/svg" xmlns:xlink="http://www.w3.org/1999/xlink">
    <title>typing</title>
    <g id="Page-1" stroke="none" stroke-width="1" fill="none" fill-rule="evenodd">
        <path d="M28,10 C28,11.8126667 27.375,13.487 26.125,15.023 C24.875,16.559 23.177,17.7726667 21.031,18.664 C18.885,19.5553333 16.5413333,20.0006667 14,20 C13.2706667,20 12.5153333,19.9583333 11.734,19.875 C9.67133333,21.6976667 7.27566667,22.958 4.547,23.656 C4.03633333,23.802 3.44266667,23.9166667 2.766,24 C2.58866667,24.0206667 2.42966667,23.9736667 2.289,23.859 C2.14833333,23.7443333 2.05733333,23.5933333 2.016,23.406 L2.016,23.39 C1.98466667,23.348 1.982,23.2856667 2.008,23.203 C2.034,23.1203333 2.04433333,23.0683333 2.039,23.047 C2.03366667,23.0256667 2.057,22.9763333 2.109,22.899 L2.203,22.758 L2.312,22.625 C2.38466667,22.5363333 2.42633333,22.4893333 2.437,22.484 C2.50966667,22.4006667 2.671,22.221 2.921,21.945 C3.171,21.669 3.35066667,21.471 3.46,21.351 C3.56933333,21.231 3.73066667,21.0253333 3.944,20.734 C4.15733333,20.4426667 4.32666667,20.177 4.452,19.937 C4.57733333,19.697 4.718,19.3896667 4.874,19.015 C5.03,18.6403333 5.16533333,18.2443333 5.28,17.827 C3.64466667,16.8996667 2.35566667,15.754 1.413,14.39 C0.470333333,13.026 -0.001,11.5623333 -0.001,9.999 C-0.001,8.645 0.368666667,7.35066667 1.108,6.116 C1.84733333,4.88133333 2.842,3.81633333 4.092,2.921 C5.342,2.02566667 6.83166667,1.31466667 8.561,0.788 C10.2903333,0.261333333 12.1026667,-0.00166666667 13.998,-0.001 C16.54,-0.001 18.8836667,0.444333333 21.029,1.335 C23.1743333,2.22566667 24.8723333,3.43933333 26.123,4.976 C27.3736667,6.51266667 27.9986667,8.187 27.998,9.999 L28,10 Z" id="Shape" fill="#FFFFFF" sketch:type="MSShapeGroup"></path>
        <g sketch:type="MSLayerGroup" transform="translate(7.000000, 8.000000)" id="dots" fill="#4A4A4A">
            <g sketch:type="MSShapeGroup">
                <g>
                    <g id="dots">
                        <g>
                            <path id="dot-one" d="M2,4 C3.10456955,4 4,3.10456954 4,2 C4,0.895430461 3.10456955,0 2,0 C0.895430445,0 0,0.895430461 0,2 C0,3.10456954 0.895430445,4 2,4 L2,4 L2,4 Z">
                            </path>
                            <path id="dot-two" d="M7,4 C8.10456955,4 9,3.10456955 9,2 C9,0.895430444 8.10456955,0 7,0 C5.89543045,0 5,0.895430444 5,2 C5,3.10456955 5.89543045,4 7,4 L7,4 L7,4 Z" id="Shape">
                            </path>
                            <path id="dot-three" d="M12,4 C13.1045696,4 14,3.10456954 14,2 C14,0.895430403 13.1045696,0 12,0 C10.8954304,0 10,0.895430403 10,2 C10,3.10456954 10.8954304,4 12,4 L12,4 L12,4 Z">
                            </path>
                        </g>
                    </g>
                </g>
            </g>
        </g>
    </g>
</svg>
